<?xml version="1.0" encoding="UTF-8"?>
<svg version="1.1" xmlns="http://www.w3.org/2000/svg" width="316" height="65">
<path d="M0 0 C104.28 0 208.56 0 316 0 C316 21.45 316 42.9 316 65 C211.72 65 107.44 65 0 65 C0 43.55 0 22.1 0 0 Z " fill="#FDFCFC" transform="translate(0,0)"/>
<path d="M0 0 C0 7.92 0 15.84 0 24 C4.81375192 20.72171131 4.81375192 20.72171131 6 18 C5.34 18 4.68 18 4 18 C4 17.34 4 16.68 4 16 C7.63 16 11.26 16 15 16 C15 16.99 15 17.98 15 19 C12.69 20.32 10.38 21.64 8 23 C8.55013597 27.07534938 9.76276094 29.55205401 12.25 32.8125 C12.83265625 33.60269531 13.4153125 34.39289062 14.015625 35.20703125 C16.17258583 37.55867999 16.17258583 37.55867999 21 37 C21.33 29.74 21.66 22.48 22 15 C22.66 15 23.32 15 24 15 C23.87625 13.783125 23.7525 12.56625 23.625 11.3125 C23.61131611 8.73992788 23.65289391 7.45399273 25.23046875 5.390625 C27.69545955 3.32125001 29.94835615 2.01721462 33 1 C33.25 4.3125 33.25 4.3125 33 8 C31.125 9.9375 31.125 9.9375 29 11 C28.34 11 27.68 11 27 11 C27 11.99 27 12.98 27 14 C27.66 14 28.32 14 29 14 C29.495 15.485 29.495 15.485 30 17 C30.66 17.33 31.32 17.66 32 18 C32 17.34 32 16.68 32 16 C35.63 15.67 39.26 15.34 43 15 C43.495 16.485 43.495 16.485 44 18 C44.515625 17.505 45.03125 17.01 45.5625 16.5 C48.93763128 14.42299614 51.09800946 14.52080818 55 15 C57.68359375 16.45703125 57.68359375 16.45703125 60 19 C60.6804924 22.03958259 60.65443042 25.02009092 60.625 28.125 C60.625 29.75265625 60.63742685 31.3803742 60.6640625 33.0078125 C60.65842285 33.72598145 60.6527832 34.44415039 60.64697266 35.18408203 C60.76347168 35.78333496 60.8799707 36.38258789 61 37 C62.485 37.99 62.485 37.99 64 39 C64 39.66 64 40.32 64 41 C62.41058594 41.09087891 62.41058594 41.09087891 60.7890625 41.18359375 C59.40102779 41.26800127 58.01300768 41.35264917 56.625 41.4375 C55.92632812 41.47681641 55.22765625 41.51613281 54.5078125 41.55664062 C50.62639508 41.74280134 50.62639508 41.74280134 47 43 C44.1533177 43.01664836 41.33567251 42.97255417 38.4921875 42.87890625 C37.65156769 42.85529526 36.81094788 42.83168427 35.94485474 42.80735779 C33.2547338 42.73066362 30.5648966 42.64666417 27.875 42.5625 C26.05339939 42.50928506 24.23178486 42.45654463 22.41015625 42.40429688 C17.93992382 42.27504071 13.4699324 42.13923154 9 42 C8.73735352 41.45730469 8.47470703 40.91460937 8.20410156 40.35546875 C7.67768066 39.28232422 7.67768066 39.28232422 7.140625 38.1875 C6.79547852 37.47980469 6.45033203 36.77210937 6.09472656 36.04296875 C4.6926966 33.42651319 2.95048397 31.22912453 1 29 C0.67 31.97 0.34 34.94 0 38 C1.32 38.33 2.64 38.66 4 39 C4 39.66 4 40.32 4 41 C-0.62 41 -5.24 41 -10 41 C-9.67 40.01 -9.34 39.02 -9 38 C-8.34 38 -7.68 38 -7 38 C-7 27.11 -7 16.22 -7 5 C-8.32 4.67 -9.64 4.34 -11 4 C-11 3.01 -11 2.02 -11 1 C-7.26513121 0.4254048 -3.78706732 0 0 0 Z " fill="#FBEDEE" transform="translate(183,8)"/>
<path d="M0 0 C3.00663191 2.0571692 3.84020899 3.33178305 4.6875 6.875 C3.77943 11.00259091 1.84484215 12.25737841 -1.46875 14.703125 C-1.9740625 15.13109375 -2.479375 15.5590625 -3 16 C-3.22988506 18.36278736 -3.22988506 18.36278736 -0.5 20.625 C0.325 21.40875 1.15 22.1925 2 23 C0 23.875 0 23.875 -3 24 C-5.89066179 22.26346566 -8.44156208 20.19022601 -11 18 C-9.22128641 13.66555582 -6.46782431 12.00599602 -2.6796875 9.46484375 C-2.12539063 8.98144531 -1.57109375 8.49804688 -1 8 C-1 7.01 -1 6.02 -1 5 C-5.18358477 5.55848826 -8.02629569 8.04446302 -11.25 10.5625 C-11.80429687 10.98724609 -12.35859375 11.41199219 -12.9296875 11.84960938 C-14.29089411 12.89398341 -15.64605833 13.94622464 -17 15 C-16.97231012 17.33829819 -16.97231012 17.33829819 -16 20 C-13.94589094 21.84840429 -12.08883692 23.30414445 -9.8125 24.8125 C-9.24724609 25.21919922 -8.68199219 25.62589844 -8.09960938 26.04492188 C-4.26872814 28.65588904 -1.60673838 29.46836339 3 29 C4.96582157 23.72802397 6.22598397 18.9020674 6.9375 13.3125 C7.66158015 8.11007537 8.50809483 4.92839332 12 1 C15.54495231 -0.77247615 19.24771771 0.07906056 23 1 C25.91432047 2.50000797 28.38828703 4.38823482 30.9375 6.4375 C31.59556641 6.94087891 32.25363281 7.44425781 32.93164062 7.96289062 C39.82209298 13.27354633 39.82209298 13.27354633 40.75 17.0625 C40.68717753 20.06541422 39.9884187 21.01328049 37.9765625 23.3203125 C35.39661075 25.66783617 32.75135987 27.85683547 30 30 C29.42121094 30.48210938 28.84242187 30.96421875 28.24609375 31.4609375 C25.55075493 33.53201528 23.7165585 34.03362865 20.3125 34.4375 C17 34 17 34 15 32.9375 C13.30001227 29.64377377 13.98039432 27.47865468 15 24 C16.85233941 21.94809916 18.71303104 20.60574416 21 19 C20.24849977 15.72226496 20.24849977 15.72226496 17 14 C17 12.68 17 11.36 17 10 C20.15330554 10.60694155 22.18888867 11.6416665 24.75 13.5625 C25.36359375 14.01753906 25.9771875 14.47257812 26.609375 14.94140625 C27.29773438 15.46541016 27.29773438 15.46541016 28 16 C27.62965297 18.68501595 27.2750414 19.76289534 25.1875 21.5625 C23.72916667 22.52083333 22.27083333 23.47916667 20.8125 24.4375 C18.7249586 26.23710466 18.37034703 27.31498405 18 30 C22.91186721 28.6736501 26.01973146 26.6660829 29.875 23.375 C30.84179688 22.55773437 31.80859375 21.74046875 32.8046875 20.8984375 C33.52914062 20.27195312 34.25359375 19.64546875 35 19 C34.95722882 17.15055464 34.95722882 17.15055464 34 15 C31.98142693 13.25934641 30.06872733 11.79204721 27.875 10.3125 C27.318125 9.90966797 26.76125 9.50683594 26.1875 9.09179688 C22.02915598 6.23173768 18.90392025 5.36810597 14 5 C13.67821952 6.6089024 13.35658876 8.21783487 13.03564453 9.8269043 C12.76060064 11.19868981 12.48290601 12.56994637 12.20263672 13.94067383 C11.58338316 16.98420103 10.99840147 20.01051031 10.53125 23.08203125 C9.90129369 27.1222318 9.51085399 29.40157104 6.8125 32.5625 C3.10744588 34.45619433 1.22478235 35.20442495 -3 35 C-9.34194516 31.89450473 -18.74073431 26.51853137 -22 20 C-22.82618108 14.10375044 -22.82618108 14.10375044 -20.82568359 11.43115234 C-19.17972336 9.90441246 -17.48040903 8.53837407 -15.6875 7.1875 C-14.79514648 6.47303711 -14.79514648 6.47303711 -13.88476562 5.74414062 C-5.76542721 -0.70597068 -5.76542721 -0.70597068 0 0 Z " fill="#E22C35" transform="translate(38,16)"/>
<path d="M0 0 C0.99 0 1.98 0 3 0 C3 1.98 3 3.96 3 6 C1.68 6 0.36 6 -1 6 C-0.67 6.66 -0.34 7.32 0 8 C0.43023798 11.87214182 0.31669086 13.52496371 -1.875 16.8125 C-4.78359285 19.80663969 -6.58322051 20.15832205 -10.625 20.5625 C-11.85089844 20.68818359 -11.85089844 20.68818359 -13.1015625 20.81640625 C-13.72804688 20.87699219 -14.35453125 20.93757813 -15 21 C-15 21.66 -15 22.32 -15 23 C-13.53626953 23.16435547 -13.53626953 23.16435547 -12.04296875 23.33203125 C-10.13451172 23.56986328 -10.13451172 23.56986328 -8.1875 23.8125 C-6.92292969 23.96332031 -5.65835937 24.11414063 -4.35546875 24.26953125 C0.19266557 25.25963732 0.19266557 25.25963732 2 28 C2.5 31.4375 2.5 31.4375 2 35 C-1.74160993 38.74160993 -4.54799336 40.15541806 -9.75 40.25 C-14.45818129 40.21593212 -18.52048595 39.47951405 -22 36 C-22.14636054 32.63370749 -22.07193479 30.21580438 -21 27 C-21.020625 26.01 -21.04125 25.02 -21.0625 24 C-21 21 -21 21 -19 18 C-19.495 17.46375 -19.99 16.9275 -20.5 16.375 C-22.44280469 13.29889257 -22.52224493 11.58110811 -22 8 C-20.1329009 5.69724444 -18.64352259 4.32176129 -16 3 C-12.77353886 2.7692769 -9.55423078 2.60477697 -6.32226562 2.48242188 C-4.5432531 2.39096924 -2.76979376 2.20268004 -1 2 C-0.67 1.34 -0.34 0.68 0 0 Z " fill="#E23B42" transform="translate(272,20)"/>
<path d="M0 0 C0 7.92 0 15.84 0 24 C4.81375192 20.72171131 4.81375192 20.72171131 6 18 C5.34 18 4.68 18 4 18 C4 17.34 4 16.68 4 16 C7.63 16 11.26 16 15 16 C15 16.99 15 17.98 15 19 C12.69 20.32 10.38 21.64 8 23 C8.55013597 27.07534938 9.76276094 29.55205401 12.25 32.8125 C12.83265625 33.60269531 13.4153125 34.39289062 14.015625 35.20703125 C16.17258583 37.55867999 16.17258583 37.55867999 21 37 C21.33 30.07 21.66 23.14 22 16 C23.98 16 25.96 16 28 16 C28.495 26.395 28.495 26.395 29 37 C29.99 37.33 30.98 37.66 32 38 C32 38.99 32 39.98 32 41 C11.86503824 42.91691324 11.86503824 42.91691324 7.23974609 39.82226562 C4.50988521 36.66170024 3.22851665 32.93125327 2 29 C1.67 29 1.34 29 1 29 C0.67 31.97 0.34 34.94 0 38 C1.32 38.33 2.64 38.66 4 39 C4 39.66 4 40.32 4 41 C-0.62 41 -5.24 41 -10 41 C-9.67 40.01 -9.34 39.02 -9 38 C-8.34 38 -7.68 38 -7 38 C-7 27.11 -7 16.22 -7 5 C-8.32 4.67 -9.64 4.34 -11 4 C-11 3.01 -11 2.02 -11 1 C-7.26513121 0.4254048 -3.78706732 0 0 0 Z " fill="#E4474F" transform="translate(183,8)"/>
<path d="M0 0 C1.21816406 0.03480469 1.21816406 0.03480469 2.4609375 0.0703125 C3.68683594 0.09738281 3.68683594 0.09738281 4.9375 0.125 C5.87722656 0.15980469 5.87722656 0.15980469 6.8359375 0.1953125 C6.8359375 2.8353125 6.8359375 5.4753125 6.8359375 8.1953125 C5.8459375 8.1953125 4.8559375 8.1953125 3.8359375 8.1953125 C3.5059375 7.2053125 3.1759375 6.2153125 2.8359375 5.1953125 C1.5159375 4.8653125 0.1959375 4.5353125 -1.1640625 4.1953125 C-1.1640625 7.8253125 -1.1640625 11.4553125 -1.1640625 15.1953125 C4.2809375 14.7003125 4.2809375 14.7003125 9.8359375 14.1953125 C10.4959375 11.8853125 11.1559375 9.5753125 11.8359375 7.1953125 C13.1559375 7.1953125 14.4759375 7.1953125 15.8359375 7.1953125 C15.8359375 9.8353125 15.8359375 12.4753125 15.8359375 15.1953125 C17.8159375 15.1953125 19.7959375 15.1953125 21.8359375 15.1953125 C21.8359375 16.1853125 21.8359375 17.1753125 21.8359375 18.1953125 C19.8559375 18.1953125 17.8759375 18.1953125 15.8359375 18.1953125 C16.1659375 24.4653125 16.4959375 30.7353125 16.8359375 37.1953125 C18.1559375 37.5253125 19.4759375 37.8553125 20.8359375 38.1953125 C20.5059375 39.1853125 20.1759375 40.1753125 19.8359375 41.1953125 C13.78125 41.390625 13.78125 41.390625 11.8359375 41.1953125 C9.8359375 39.1953125 9.8359375 39.1953125 9.60888672 37.04052734 C9.61936035 36.17121582 9.62983398 35.3019043 9.640625 34.40625 C9.64707031 33.46523438 9.65351563 32.52421875 9.66015625 31.5546875 C9.67691406 30.56984375 9.69367188 29.585 9.7109375 28.5703125 C9.71996094 27.57773437 9.72898438 26.58515625 9.73828125 25.5625 C9.76189501 23.10666862 9.7977668 20.65096076 9.8359375 18.1953125 C6.2059375 18.1953125 2.5759375 18.1953125 -1.1640625 18.1953125 C-0.8340625 24.1353125 -0.5040625 30.0753125 -0.1640625 36.1953125 C1.1559375 36.8553125 2.4759375 37.5153125 3.8359375 38.1953125 C3.8359375 38.8553125 3.8359375 39.5153125 3.8359375 40.1953125 C-1.1140625 40.1953125 -6.0640625 40.1953125 -11.1640625 40.1953125 C-11.1640625 39.5353125 -11.1640625 38.8753125 -11.1640625 38.1953125 C-10.1740625 37.5353125 -9.1840625 36.8753125 -8.1640625 36.1953125 C-7.65874384 34.27089835 -7.65874384 34.27089835 -7.65234375 32.0625 C-7.59916992 30.85400391 -7.59916992 30.85400391 -7.54492188 29.62109375 C-7.52236328 28.77933594 -7.49980469 27.93757813 -7.4765625 27.0703125 C-7.44240234 26.22082031 -7.40824219 25.37132813 -7.37304688 24.49609375 C-7.29047077 22.39630145 -7.22559272 20.29582686 -7.1640625 18.1953125 C-8.8140625 18.1953125 -10.4640625 18.1953125 -12.1640625 18.1953125 C-12.1640625 17.2053125 -12.1640625 16.2153125 -12.1640625 15.1953125 C-10.5140625 15.1953125 -8.8640625 15.1953125 -7.1640625 15.1953125 C-7.256875 13.6484375 -7.256875 13.6484375 -7.3515625 12.0703125 C-7.1232067 7.35095939 -5.61950579 0.50717561 0 0 Z " fill="#DE2A35" transform="translate(150.1640625,8.8046875)"/>
<path d="M0 0 C5.13722479 1.81313816 7.59980377 4.10729231 10 9 C10.80851635 15.36706622 9.83189904 18.85718813 6 24 C1.68266618 26.9741633 -1.81076076 27.6486549 -7 27 C-11.86953166 24.56523417 -14.18709505 22.13656401 -16 17 C-16.559524 11.77777599 -15.9224897 8.38373454 -13 4 C-8.67800671 0.26736943 -5.66822992 -0.70852874 0 0 Z " fill="#DD2D36" transform="translate(128,23)"/>
<path d="M0 0 C3.60516018 1.91923976 5.62631513 3.44920421 7.05859375 7.24609375 C7.68395316 11.6038614 8.07232016 16.19844717 6.078125 20.2265625 C3.86083551 22.98964633 1.46594091 25.24393282 -1.94140625 26.24609375 C-6.97706158 26.7038806 -9.88078292 26.29156125 -13.94140625 23.24609375 C-16.79931078 20.7964613 -17.72744118 18.79530918 -18.25 15.01171875 C-18.50079686 10.11737995 -18.34951886 7.03397962 -15.12890625 3.18359375 C-11.03927853 -1.10799089 -5.63401267 -2.18785603 0 0 Z " fill="#DD2D36" transform="translate(294.94140625,23.75390625)"/>
<path d="M0 0 C0.74056641 0.02255859 1.48113281 0.04511719 2.24414062 0.06835938 C4.05947357 0.1269185 5.87375681 0.21659114 7.6875 0.3125 C7.6875 3.9425 7.6875 7.5725 7.6875 11.3125 C6.6975 10.9825 5.7075 10.6525 4.6875 10.3125 C3.98538106 8.66045544 3.31778587 6.99326231 2.6875 5.3125 C-0.07500036 3.93124982 -2.25981099 4.12170694 -5.3125 4.3125 C-7.59103355 6.12425031 -7.59103355 6.12425031 -7.3359375 8.71484375 C-5.83892975 12.51450081 -3.56400441 13.14980861 0.0625 14.875 C7.69301134 18.53798382 7.69301134 18.53798382 9.6875 22.3125 C10.10171694 25.48438039 9.6406389 28.2689542 8.6875 31.3125 C5.98926302 34.70259261 4.57819339 36.04817609 0.3125 36.64453125 C-4.62297948 36.72729081 -9.45687758 36.15695607 -14.3125 35.3125 C-14.3125 32.0125 -14.3125 28.7125 -14.3125 25.3125 C-13.3225 25.3125 -12.3325 25.3125 -11.3125 25.3125 C-9.6875 27.75 -9.6875 27.75 -8.3125 30.3125 C-6.41761048 32.20738952 -3.74110854 31.49269112 -1.22265625 31.54296875 C0.9287636 31.4827792 0.9287636 31.4827792 2.6875 29.3125 C2.85437448 26.72895782 2.85437448 26.72895782 2.6875 24.3125 C1.70007813 23.76980469 0.71265625 23.22710937 -0.3046875 22.66796875 C-1.59916715 21.94568662 -2.89342658 21.22300971 -4.1875 20.5 C-4.83847656 20.14357422 -5.48945312 19.78714844 -6.16015625 19.41992188 C-9.37847903 17.61168897 -11.2321783 16.43298255 -13.3125 13.3125 C-14.09520564 6.37996431 -14.09520564 6.37996431 -11.3046875 2.57421875 C-7.35989443 -0.40755042 -4.78559449 -0.27798359 0 0 Z " fill="#E02731" transform="translate(98.3125,13.6875)"/>
<path d="M0 0 C0.33 0.99 0.66 1.98 1 3 C1.515625 2.505 2.03125 2.01 2.5625 1.5 C5.93763128 -0.57700386 8.09800946 -0.47919182 12 0 C14.68359375 1.45703125 14.68359375 1.45703125 17 4 C17.6804924 7.03958259 17.65443042 10.02009092 17.625 13.125 C17.625 14.75265625 17.63742685 16.3803742 17.6640625 18.0078125 C17.65842285 18.72598145 17.6527832 19.44415039 17.64697266 20.18408203 C17.76347168 20.78333496 17.8799707 21.38258789 18 22 C18.99 22.66 19.98 23.32 21 24 C21 24.66 21 25.32 21 26 C16.38 26 11.76 26 7 26 C7 25.34 7 24.68 7 24 C7.99 23.34 8.98 22.68 10 22 C10.24849576 19.22808898 10.32683409 16.70112612 10.25 13.9375 C10.24484375 13.19177734 10.2396875 12.44605469 10.234375 11.67773438 C10.50438465 8.03885983 10.50438465 8.03885983 9 5 C6.54207971 4.66656449 6.54207971 4.66656449 4 5 C1.59880941 8.60178588 1.56228678 11.50866369 1.375 15.6875 C1.31699219 16.7403418 1.31699219 16.7403418 1.2578125 17.81445312 C1.1637666 19.54254655 1.0808032 21.27123675 1 23 C2.32 23.33 3.64 23.66 5 24 C5 24.66 5 25.32 5 26 C0.05 26 -4.9 26 -10 26 C-10 25.01 -10 24.02 -10 23 C-8.68 23 -7.36 23 -6 23 C-5.91930342 20.04112541 -5.85965335 17.0844341 -5.8125 14.125 C-5.78736328 13.28324219 -5.76222656 12.44148438 -5.73632812 11.57421875 C-5.72666016 10.76855469 -5.71699219 9.96289062 -5.70703125 9.1328125 C-5.6913208 8.38918457 -5.67561035 7.64555664 -5.65942383 6.87939453 C-5.82800903 5.94909424 -5.82800903 5.94909424 -6 5 C-6.99 4.34 -7.98 3.68 -9 3 C-9 2.34 -9 1.68 -9 1 C-5.92677456 0.08941469 -3.19902639 -0.08886184 0 0 Z " fill="#EA1C24" transform="translate(226,23)"/>
<path d="M0 0 C3.72298499 1.44722972 6.73147402 3.5272501 9.953125 5.86328125 C10.58992188 6.30220703 11.22671875 6.74113281 11.8828125 7.19335938 C15.2322696 9.59142813 17.00841909 10.97073665 17.703125 15.05078125 C16.28822766 16.32358419 14.87112834 17.59393955 13.453125 18.86328125 C12.66421875 19.57097656 11.8753125 20.27867188 11.0625 21.0078125 C5.28425708 26.01115861 5.28425708 26.01115861 1.953125 26.23828125 C0.839375 26.14546875 0.839375 26.14546875 -0.296875 26.05078125 C-0.296875 23.92578125 -0.296875 23.92578125 0.703125 21.05078125 C2.70942497 19.35412165 4.78610744 17.91246226 6.98828125 16.48046875 C7.55417969 16.00867187 8.12007812 15.536875 8.703125 15.05078125 C8.703125 14.06078125 8.703125 13.07078125 8.703125 12.05078125 C7.27341017 10.62139954 7.27341017 10.62139954 5.390625 9.42578125 C4.77574219 9.00039063 4.16085938 8.575 3.52734375 8.13671875 C1.58592028 6.89307929 1.58592028 6.89307929 -1.296875 6.05078125 C-0.89883939 8.93653944 -0.50678431 9.87267638 1.765625 11.80078125 C2.405 12.21328125 3.044375 12.62578125 3.703125 13.05078125 C2.703125 16.05078125 2.703125 16.05078125 0.265625 17.86328125 C-2.72091185 20.41276393 -3.35881258 22.29853157 -4.296875 26.05078125 C-5.616875 25.39078125 -6.936875 24.73078125 -8.296875 24.05078125 C-8.92733087 7.65892868 -8.92733087 7.65892868 -4.53125 1.62890625 C-2.296875 0.05078125 -2.296875 0.05078125 0 0 Z " fill="#FAEEED" transform="translate(56.296875,19.94921875)"/>
<path d="M0 0 C0.52207031 0.26039062 1.04414062 0.52078125 1.58203125 0.7890625 C1.22797283 3.65946471 0.72633416 4.65752485 -1.44921875 6.640625 C-2.26390625 7.22585937 -3.07859375 7.81109375 -3.91796875 8.4140625 C-7.20203985 10.64358023 -7.20203985 10.64358023 -9.41796875 13.7890625 C-8.84046875 14.0571875 -8.26296875 14.3253125 -7.66796875 14.6015625 C-5.41796875 15.7890625 -5.41796875 15.7890625 -3.41796875 17.4765625 C-1.49635182 19.0516323 -1.49635182 19.0516323 0.83203125 18.4765625 C1.40953125 18.2496875 1.98703125 18.0228125 2.58203125 17.7890625 C0.93203125 16.4690625 -0.71796875 15.1490625 -2.41796875 13.7890625 C-0.9301506 10.00188903 1.20191534 8.01499249 4.58203125 5.7890625 C5.57203125 6.1190625 6.56203125 6.4490625 7.58203125 6.7890625 C8.24203125 6.1290625 8.90203125 5.4690625 9.58203125 4.7890625 C8.6650352 21.70605855 8.6650352 21.70605855 4.58203125 25.7890625 C0.40726619 26.44890379 -1.91566392 25.72825982 -5.28515625 23.3828125 C-6.63211053 22.36599407 -7.96789134 21.33423015 -9.29296875 20.2890625 C-9.98132813 19.76441406 -10.6696875 19.23976563 -11.37890625 18.69921875 C-13.06843057 17.40860989 -14.74457876 16.10052336 -16.41796875 14.7890625 C-16.2296448 10.92493409 -15.45590545 9.82578226 -12.6171875 7.078125 C-11.45732659 6.17615791 -10.28626598 5.2884422 -9.10546875 4.4140625 C-8.52345703 3.95128906 -7.94144531 3.48851562 -7.34179688 3.01171875 C-3.02485061 -0.26388034 -3.02485061 -0.26388034 0 0 Z " fill="#FBEFEE" transform="translate(36.41796875,20.2109375)"/>
<path d="M0 0 C2.625 0.25 2.625 0.25 4.375 1.5625 C7.37621976 5.61414667 7.08915879 10.43962704 6.625 15.25 C5.4375 18.25 5.4375 18.25 3.625 20.25 C1.1875 21.25 1.1875 21.25 -1.375 21.25 C-4.49556696 19.51635169 -5.22831791 18.69004627 -6.375 15.25 C-6.90496391 9.80767832 -6.86657975 5.71922208 -3.375 1.25 C-2.375 0.25 -2.375 0.25 0 0 Z " fill="#FCF6F6" transform="translate(289.375,25.75)"/>
<path d="M0 0 C3.68196564 3.85813625 3.48714423 7.25315373 3.37109375 12.359375 C2.88354495 15.82866965 1.57348442 17.66777975 -1 20 C-6.41935484 19.63870968 -6.41935484 19.63870968 -8.875 16.9375 C-10.88411444 11.69147897 -10.66095489 7.65238724 -8.625 2.5625 C-6.08681048 -1.44002963 -4.35220532 -1.37996754 0 0 Z " fill="#FBF1F1" transform="translate(128,27)"/>
<path d="M0 0 C3.63 0 7.26 0 11 0 C11 6.6 11 13.2 11 20 C9.33333333 20 7.66666667 20 6 20 C5.67 20.66 5.34 21.32 5 22 C5 21.34 5 20.68 5 20 C4.360625 19.855625 3.72125 19.71125 3.0625 19.5625 C1 19 1 19 0 18 C-0.08631874 16.65732587 -0.10706473 15.31025678 -0.09765625 13.96484375 C-0.09443359 13.15595703 -0.09121094 12.34707031 -0.08789062 11.51367188 C-0.07951172 10.66353516 -0.07113281 9.81339844 -0.0625 8.9375 C-0.05798828 8.08349609 -0.05347656 7.22949219 -0.04882812 6.34960938 C-0.03700373 4.23304337 -0.01906769 2.11651315 0 0 Z " fill="#FBEEED" transform="translate(149,27)"/>
<path d="M0 0 C2.64 0 5.28 0 8 0 C8.06058594 1.2065625 8.12117187 2.413125 8.18359375 3.65625 C8.26807818 5.27084124 8.35272211 6.88542414 8.4375 8.5 C8.47681641 9.29148437 8.51613281 10.08296875 8.55664062 10.8984375 C8.82705218 15.97385441 9.3127142 20.96375445 10 26 C9.34 26 8.68 26 8 26 C8 29.3 8 32.6 8 36 C9.98 36.33 11.96 36.66 14 37 C14 37.66 14 38.32 14 39 C9.38 39 4.76 39 0 39 C0.33 38.01 0.66 37.02 1 36 C1.66 36 2.32 36 3 36 C3 25.11 3 14.22 3 3 C2.01 2.67 1.02 2.34 0 2 C0 1.34 0 0.68 0 0 Z " fill="#EC1B23" transform="translate(173,10)"/>
<path d="M0 0 C0.99 0 1.98 0 3 0 C3 1.98 3 3.96 3 6 C1.68 6 0.36 6 -1 6 C-0.67 6.66 -0.34 7.32 0 8 C0.40191848 11.61726636 0.20108852 13.59782296 -1.4375 16.875 C-4.79173865 19.65656376 -6.94753381 19.41425212 -11.171875 19.17578125 C-11.77515625 19.11777344 -12.3784375 19.05976562 -13 19 C-13 18.01 -13 17.02 -13 16 C-11.35 16 -9.7 16 -8 16 C-6.63376326 13.26752652 -6.871574 11.01801098 -7 8 C-8.1036623 6.67109616 -8.1036623 6.67109616 -10.875 6.875 C-14.03212413 6.85623134 -14.03212413 6.85623134 -17 8 C-17 10.31 -17 12.62 -17 15 C-17.99 15.495 -17.99 15.495 -19 16 C-19 15.01 -19 14.02 -19 13 C-19.66 13 -20.32 13 -21 13 C-21 11.68 -21 10.36 -21 9 C-20.34 9 -19.68 9 -19 9 C-18.87625 8.195625 -18.7525 7.39125 -18.625 6.5625 C-18.41875 5.716875 -18.2125 4.87125 -18 4 C-14.48190508 2.24095254 -10.21893715 2.6299413 -6.32226562 2.48242188 C-4.5432531 2.39096924 -2.76979376 2.20268004 -1 2 C-0.67 1.34 -0.34 0.68 0 0 Z " fill="#E12E37" transform="translate(272,20)"/>
<path d="M0 0 C1.98 0 3.96 0 6 0 C6.33 6.93 6.66 13.86 7 21 C7.99 21.33 8.98 21.66 10 22 C10 22.99 10 23.98 10 25 C2.41 25 -5.18 25 -13 25 C-13 24.67 -13 24.34 -13 24 C-10.69 24 -8.38 24 -6 24 C-6 23.34 -6 22.68 -6 22 C-4.35 21.67 -2.7 21.34 -1 21 C-0.67 14.07 -0.34 7.14 0 0 Z " fill="#DC3F44" transform="translate(205,24)"/>
<path d="M0 0 C2.4375 0.375 2.4375 0.375 4.4375 2.375 C4.60920903 5.10197223 4.6699568 7.71406468 4.625 10.4375 C4.62435547 11.18322266 4.62371094 11.92894531 4.62304688 12.69726562 C4.57778159 18.23471841 4.57778159 18.23471841 3.4375 19.375 C1.91821962 19.44679964 0.39582518 19.45892007 -1.125 19.4375 C-1.95128906 19.42847656 -2.77757812 19.41945313 -3.62890625 19.41015625 C-4.58603516 19.39275391 -4.58603516 19.39275391 -5.5625 19.375 C-5.64367951 16.95765458 -5.70306926 14.54305051 -5.75 12.125 C-5.77513672 11.44308594 -5.80027344 10.76117188 -5.82617188 10.05859375 C-5.87229709 6.89132888 -5.74967151 4.71580362 -4.2109375 1.9140625 C-2.5625 0.375 -2.5625 0.375 0 0 Z " fill="#FCFAFA" transform="translate(232.5625,26.625)"/>
<path d="M0 0 C2.14700793 1.14367738 4.29262993 2.28982607 6.4375 3.4375 C7.04916016 3.76298828 7.66082031 4.08847656 8.29101562 4.42382812 C12.88671875 6.88671875 12.88671875 6.88671875 14 8 C14.28417861 10.69969684 14.32477191 12.41135091 13 14.8125 C9.80838191 16.70752324 6.55403354 16.65788951 3 16 C0.5 14.1875 0.5 14.1875 -1 12 C-1 11.01 -1 10.02 -1 9 C-1.99 9 -2.98 9 -4 9 C-4 12.3 -4 15.6 -4 19 C-4.33 19 -4.66 19 -5 19 C-5.33 15.04 -5.66 11.08 -6 7 C-5.34 6.67 -4.68 6.34 -4 6 C-4 6.66 -4 7.32 -4 8 C-2.35 7.34 -0.7 6.68 1 6 C0.67 4.02 0.34 2.04 0 0 Z " fill="#FBF2F1" transform="translate(88,30)"/>
<path d="M0 0 C2.61089666 2.61089666 3.00848771 4.07396434 3.4375 7.8125 C3.23575282 12.51408647 1.80775312 15.23169976 -1 19 C-5.31733382 21.9741633 -8.81076076 22.6486549 -14 22 C-17.65362673 20.13871846 -19.53176912 18.93646177 -21.375 15.25 C-21.58125 14.5075 -21.7875 13.765 -22 13 C-21.34 13 -20.68 13 -20 13 C-20 13.99 -20 14.98 -20 16 C-19.34 16 -18.68 16 -18 16 C-18 12.37 -18 8.74 -18 5 C-17.67 5 -17.34 5 -17 5 C-16.83564453 6.03060547 -16.83564453 6.03060547 -16.66796875 7.08203125 C-16.50941406 7.98308594 -16.35085937 8.88414063 -16.1875 9.8125 C-16.03667969 10.70582031 -15.88585937 11.59914063 -15.73046875 12.51953125 C-14.93725415 15.21306747 -14.24668881 16.34541883 -12 18 C-9.40882687 17.99843776 -9.40882687 17.99843776 -7 17 C-4.89172945 13.83759418 -4.66182535 12.49342531 -4.375 8.8125 C-4.30023438 7.91144531 -4.22546875 7.01039062 -4.1484375 6.08203125 C-4.09945312 5.39496094 -4.05046875 4.70789062 -4 4 C-2 6 -2 6 -1 9 C-0.34 9 0.32 9 1 9 C0.67 6.03 0.34 3.06 0 0 Z " fill="#DF323C" transform="translate(135,28)"/>
<path d="M0 0 C0.33 0 0.66 0 1 0 C1.12375 0.804375 1.2475 1.60875 1.375 2.4375 C1.58125 3.283125 1.7875 4.12875 2 5 C2.66 5.33 3.32 5.66 4 6 C4 4.35 4 2.7 4 1 C6.74505463 -0.37252731 9.00327412 -0.13229255 12.0625 -0.125 C13.14660156 -0.12757812 14.23070312 -0.13015625 15.34765625 -0.1328125 C18 0 18 0 19 1 C19.04080783 2.99958364 19.04254356 5.00045254 19 7 C19.66 7.33 20.32 7.66 21 8 C16.43449662 10.64041785 12.15393975 10.55191796 7 10 C1.97058824 7.97058824 1.97058824 7.97058824 0 6 C-0.04080783 4.00041636 -0.04254356 1.99954746 0 0 Z " fill="#E14047" transform="translate(250,50)"/>
<path d="M0 0 C3.3 0.33 6.6 0.66 10 1 C10 1.99 10 2.98 10 4 C11.65 4 13.3 4 15 4 C15 9.94 15 15.88 15 22 C13.02 22.99 13.02 22.99 11 24 C11 24.66 11 25.32 11 26 C10.34 26 9.68 26 9 26 C9 25.34 9 24.68 9 24 C8.01 23.67 7.02 23.34 6 23 C6.495 22.175 6.99 21.35 7.5 20.5 C9.25087409 16.41462713 9.78399391 13.37294383 9 9 C7.14884184 5.29768368 5.96464284 3.48232142 2.25 1.625 C1.5075 1.41875 0.765 1.2125 0 1 C0 0.67 0 0.34 0 0 Z " fill="#FBEFEE" transform="translate(128,23)"/>
<path d="M0 0 C2.84780619 2.23206431 3.84997666 3.54992999 5 7 C5.66 7.66 6.32 8.32 7 9 C6.34 10.65 5.68 12.3 5 14 C0.1446753 12.57892936 -3.84175548 10.85369722 -8 8 C-9.125 5.4375 -9.125 5.4375 -9 3 C-6.83574358 -0.69196683 -3.97279505 -0.56754215 0 0 Z " fill="#FAF0F0" transform="translate(99,17)"/>
<path d="M0 0 C2.475 0.495 2.475 0.495 5 1 C5.33 6.61 5.66 12.22 6 18 C8.475 18.99 8.475 18.99 11 20 C10.67 20.99 10.34 21.98 10 23 C3.9453125 23.1953125 3.9453125 23.1953125 2 23 C0 21 0 21 -0.22705078 18.84521484 C-0.21657715 17.97590332 -0.20610352 17.1065918 -0.1953125 16.2109375 C-0.18886719 15.26992188 -0.18242187 14.32890625 -0.17578125 13.359375 C-0.15902344 12.37453125 -0.14226562 11.3896875 -0.125 10.375 C-0.11597656 9.38242187 -0.10695312 8.38984375 -0.09765625 7.3671875 C-0.07404116 4.91121866 -0.04110799 2.45572832 0 0 Z " fill="#E1202C" transform="translate(160,27)"/>
<path d="M0 0 C0.99 0 1.98 0 3 0 C4.625 2.4375 4.625 2.4375 6 5 C7.89488952 6.89488952 10.57139146 6.18019112 13.08984375 6.23046875 C15.2412636 6.1702792 15.2412636 6.1702792 17 4 C17.69748583 2.68252676 18.36959957 1.35085807 19 0 C19.33 1.32 19.66 2.64 20 4 C20.66 3.34 21.32 2.68 22 2 C22.33 3.32 22.66 4.64 23 6 C18.46478738 10.77390802 18.46478738 10.77390802 14.62109375 11.3671875 C9.68570539 11.38225739 4.85697216 10.84469081 0 10 C0 6.7 0 3.4 0 0 Z " fill="#E13740" transform="translate(84,39)"/>
<path d="M0 0 C-0.33 0.66 -0.66 1.32 -1 2 C-1.99 2 -2.98 2 -4 2 C-3.67 7.61 -3.34 13.22 -3 19 C-2.34 16.36 -1.68 13.72 -1 11 C-0.34 10.34 0.32 9.68 1 9 C1 13.62 1 18.24 1 23 C2.32 23.33 3.64 23.66 5 24 C5 24.66 5 25.32 5 26 C0.05 26 -4.9 26 -10 26 C-10 25.01 -10 24.02 -10 23 C-8.68 23 -7.36 23 -6 23 C-5.91930342 20.04112541 -5.85965335 17.0844341 -5.8125 14.125 C-5.78736328 13.28324219 -5.76222656 12.44148438 -5.73632812 11.57421875 C-5.72666016 10.76855469 -5.71699219 9.96289062 -5.70703125 9.1328125 C-5.6913208 8.38918457 -5.67561035 7.64555664 -5.65942383 6.87939453 C-5.82800903 5.94909424 -5.82800903 5.94909424 -6 5 C-6.99 4.34 -7.98 3.68 -9 3 C-9 2.34 -9 1.68 -9 1 C-5.92677456 0.08941469 -3.19902639 -0.08886184 0 0 Z " fill="#E1373E" transform="translate(226,23)"/>
<path d="M0 0 C1.32 0 2.64 0 4 0 C4 2.64 4 5.28 4 8 C5.98 8 7.96 8 10 8 C10 8.99 10 9.98 10 11 C8.02 11 6.04 11 4 11 C4 16.94 4 22.88 4 29 C3.67 29 3.34 29 3 29 C3 23.39 3 17.78 3 12 C-0.3 11.67 -3.6 11.34 -7 11 C-7 10.01 -7 9.02 -7 8 C-5.35 7.67 -3.7 7.34 -2 7 C-1.34 4.69 -0.68 2.38 0 0 Z " fill="#E33B43" transform="translate(162,16)"/>
<path d="M0 0 C0.74056641 0.02255859 1.48113281 0.04511719 2.24414062 0.06835938 C4.05947357 0.1269185 5.87375681 0.21659114 7.6875 0.3125 C7.6875 3.9425 7.6875 7.5725 7.6875 11.3125 C6.6975 10.9825 5.7075 10.6525 4.6875 10.3125 C3.98538106 8.66045544 3.31778587 6.99326231 2.6875 5.3125 C-0.08350394 3.92699803 -2.2459706 4.1247533 -5.3125 4.3125 C-6.3025 4.9725 -7.2925 5.6325 -8.3125 6.3125 C-9.6325 6.3125 -10.9525 6.3125 -12.3125 6.3125 C-12.3125 8.6225 -12.3125 10.9325 -12.3125 13.3125 C-12.6425 13.3125 -12.9725 13.3125 -13.3125 13.3125 C-13.91971063 6.14741461 -13.91971063 6.14741461 -11.3125 2.5625 C-7.36131418 -0.40088937 -4.78140838 -0.27774043 0 0 Z " fill="#E12A34" transform="translate(98.3125,13.6875)"/>
<path d="M0 0 C0.66 0 1.32 0 2 0 C3.17426264 2.34852528 3.11508173 3.73774065 3.09765625 6.3515625 C3.09443359 7.20234375 3.09121094 8.053125 3.08789062 8.9296875 C3.07951172 9.81914063 3.07113281 10.70859375 3.0625 11.625 C3.05798828 12.5221875 3.05347656 13.419375 3.04882812 14.34375 C3.03702591 16.56256648 3.02056155 18.78125018 3 21 C4.65 21.33 6.3 21.66 8 22 C8 22.33 8 22.66 8 23 C4.7 23 1.4 23 -2 23 C-1.85962362 19.54136482 -1.7129541 16.08319863 -1.5625 12.625 C-1.52318359 11.64015625 -1.48386719 10.6553125 -1.44335938 9.640625 C-1.40146484 8.69960938 -1.35957031 7.75859375 -1.31640625 6.7890625 C-1.27974854 5.91975098 -1.24309082 5.05043945 -1.20532227 4.15478516 C-1 2 -1 2 0 0 Z " fill="#EB1B23" transform="translate(145,25)"/>
<path d="M0 0 C2.37531394 -0.0543965 4.74935883 -0.09385864 7.125 -0.125 C7.79015625 -0.14175781 8.4553125 -0.15851562 9.140625 -0.17578125 C13.49516056 -0.21847278 16.95600114 0.40003783 21 2 C21.125 5.375 21.125 5.375 21 9 C20.34 9.66 19.68 10.32 19 11 C18.01 11 17.02 11 16 11 C15.87625 10.030625 15.7525 9.06125 15.625 8.0625 C15.41875 7.051875 15.2125 6.04125 15 5 C12.29816945 3.64908472 9.88191794 3.66141942 6.875 3.4375 C5.23144531 3.31181641 5.23144531 3.31181641 3.5546875 3.18359375 C2.71164063 3.12300781 1.86859375 3.06242187 1 3 C0.67 2.01 0.34 1.02 0 0 Z " fill="#E6242C" transform="translate(253,46)"/>
<path d="M0 0 C0.33 0 0.66 0 1 0 C1.0992011 4.32326033 1.17162265 8.64591024 1.21972656 12.9699707 C1.23978825 14.43948921 1.26704478 15.90892841 1.30175781 17.37817383 C1.35052141 19.49580487 1.37302161 21.61237687 1.390625 23.73046875 C1.41157227 25.00301514 1.43251953 26.27556152 1.45410156 27.58666992 C1 31 1 31 -3 36 C1.62 36 6.24 36 11 36 C11 36.33 11 36.66 11 37 C5.39 37 -0.22 37 -6 37 C-5.67 36.01 -5.34 35.02 -5 34 C-6.32 33.67 -7.64 33.34 -9 33 C-6.36 32.67 -3.72 32.34 -1 32 C-1.00523682 31.13721436 -1.01047363 30.27442871 -1.01586914 29.38549805 C-1.03291996 26.18188727 -1.04545453 22.97829964 -1.05493164 19.7746582 C-1.05995777 18.38858275 -1.06677966 17.00251259 -1.07543945 15.61645508 C-1.08758018 13.62323285 -1.09271021 11.62997181 -1.09765625 9.63671875 C-1.10289307 8.43748779 -1.10812988 7.23825684 -1.11352539 6.00268555 C-1 3 -1 3 0 0 Z " fill="#F6C3C3" transform="translate(176,13)"/>
<path d="M0 0 C3.0625 0.1875 3.0625 0.1875 5.0625 2.1875 C5.40740322 6.24011287 5.36413882 7.73504176 3.0625 11.1875 C0.5625 11.5 0.5625 11.5 -1.9375 11.1875 C-3.9375 9.1875 -3.9375 9.1875 -4.16796875 7.27734375 C-4.02781859 0.2570948 -4.02781859 0.2570948 0 0 Z " fill="#FBEEED" transform="translate(260.9375,25.8125)"/>
<path d="M0 0 C1.32 0 2.64 0 4 0 C4 6.93 4 13.86 4 21 C2.68 21.33 1.36 21.66 0 22 C0 14.74 0 7.48 0 0 Z " fill="#E91C24" transform="translate(206,24)"/>
<path d="M0 0 C0.13277344 1.13179687 0.26554687 2.26359375 0.40234375 3.4296875 C0.5805342 4.91148179 0.75893029 6.39325136 0.9375 7.875 C1.02451172 8.62136719 1.11152344 9.36773437 1.20117188 10.13671875 C1.63326063 14.1953231 1.63326063 14.1953231 3 18 C-2.64770599 16.52668539 -2.64770599 16.52668539 -4.17578125 14.2421875 C-5.12203564 11.66801678 -5.30023628 9.61389646 -5.3125 6.875 C-5.32925781 6.00617187 -5.34601563 5.13734375 -5.36328125 4.2421875 C-5.24339844 3.50226562 -5.12351562 2.76234375 -5 2 C-2 0 -2 0 0 0 Z " fill="#E72029" transform="translate(282,29)"/>
<path d="M0 0 C2.61089666 2.61089666 3.00848771 4.07396434 3.4375 7.8125 C3.29144741 12.39167811 1.50773151 15.23840274 -1 19 C-2.32 18.67 -3.64 18.34 -5 18 C-4.67 13.38 -4.34 8.76 -4 4 C-2 6 -2 6 -1 9 C-0.34 9 0.32 9 1 9 C0.67 6.03 0.34 3.06 0 0 Z " fill="#E4373E" transform="translate(135,28)"/>
<path d="M0 0 C0.33 0 0.66 0 1 0 C1.03738281 1.27617187 1.07476562 2.55234375 1.11328125 3.8671875 C1.17892791 5.53648838 1.2453757 7.20575789 1.3125 8.875 C1.33505859 9.71675781 1.35761719 10.55851562 1.38085938 11.42578125 C1.41630859 12.23144531 1.45175781 13.03710938 1.48828125 13.8671875 C1.51446533 14.61081543 1.54064941 15.35444336 1.56762695 16.12060547 C1.86729591 18.40733826 1.86729591 18.40733826 5 20 C5 20.66 5 21.32 5 22 C0.38 22 -4.24 22 -9 22 C-9 21.34 -9 20.68 -9 20 C-8.01 19.34 -7.02 18.68 -6 18 C-5.41312216 14.65386488 -5.41312216 14.65386488 -5.3125 10.875 C-5.24675781 9.59367187 -5.18101562 8.31234375 -5.11328125 6.9921875 C-5.05720703 5.51105469 -5.05720703 5.51105469 -5 4 C-4.67 4 -4.34 4 -4 4 C-4 8.95 -4 13.9 -4 19 C-2.68 19 -1.36 19 0 19 C0 12.73 0 6.46 0 0 Z " fill="#D5333B" transform="translate(242,27)"/>
<path d="M0 0 C3.96 0 7.92 0 12 0 C12 1.65 12 3.3 12 5 C10.33438601 6.66561399 8.34037295 6.17115945 6.0625 6.1875 C5.16660156 6.20167969 4.27070313 6.21585938 3.34765625 6.23046875 C1 6 1 6 -1 4 C-0.67 2.68 -0.34 1.36 0 0 Z " fill="#FCF2F2" transform="translate(256,50)"/>
<path d="M0 0 C0.33 1.32 0.66 2.64 1 4 C0.34 4 -0.32 4 -1 4 C-1 5.32 -1 6.64 -1 8 C-0.34 8 0.32 8 1 8 C1.33 8.66 1.66 9.32 2 10 C2.33 7.69 2.66 5.38 3 3 C3.66 3 4.32 3 5 3 C5.66 6.3 6.32 9.6 7 13 C9.31 13.33 11.62 13.66 14 14 C14 14.33 14 14.66 14 15 C12.39773045 15.22245393 10.79303233 15.42746669 9.1875 15.625 C8.29417969 15.74101563 7.40085937 15.85703125 6.48046875 15.9765625 C4 16 4 16 1 14 C-1.79965982 10.26712024 -2.50474782 7.64367999 -2 3 C-1.34 2.01 -0.68 1.02 0 0 Z " fill="#E2434B" transform="translate(252,25)"/>
<path d="M0 0 C2.0625 0.4375 2.0625 0.4375 4 1 C5.35321101 8.03669725 5.35321101 8.03669725 3 12 C2.30269194 14.3243602 1.63087848 16.65673706 1 19 C0.67 19 0.34 19 0 19 C-0.1938211 16.02111874 -0.38035102 13.04209754 -0.5625 10.0625 C-0.61857422 9.21236328 -0.67464844 8.36222656 -0.73242188 7.48632812 C-0.80493164 6.27299805 -0.80493164 6.27299805 -0.87890625 5.03515625 C-0.9260376 4.2862915 -0.97316895 3.53742676 -1.02172852 2.76586914 C-1 1 -1 1 0 0 Z " fill="#EA1B23" transform="translate(222,24)"/>
<path d="M0 0 C1.9375 0.3125 1.9375 0.3125 4 1 C4.33 1.99 4.66 2.98 5 4 C5.99 4 6.98 4 8 4 C10.35723489 6.53184488 11 7.47190093 11 11 C7.625 11.1875 7.625 11.1875 4 11 C2 8 2 8 2 4 C1.34 3.67 0.68 3.34 0 3 C0 2.01 0 1.02 0 0 Z " fill="#E52C39" transform="translate(188,37)"/>
<path d="M0 0 C0.4375 3.1875 0.4375 3.1875 0 7 C-2.0478079 9.17142885 -4.32547259 10.68694016 -7 12 C-7.66 12 -8.32 12 -9 12 C-9.375 9.3125 -9.375 9.3125 -9 6 C-6.87384074 3.51948086 -3.43543803 0 0 0 Z " fill="#72AB54" transform="translate(216,9)"/>
<path d="M0 0 C0.66 0.66 1.32 1.32 2 2 C1.9765625 5.2578125 1.9765625 5.2578125 1.625 9.125 C1.51414062 10.40632813 1.40328125 11.68765625 1.2890625 13.0078125 C1.19367188 13.99523438 1.09828125 14.98265625 1 16 C0.34 16 -0.32 16 -1 16 C-1 15.01 -1 14.02 -1 13 C-1.99 12.67 -2.98 12.34 -4 12 C-4.29554656 4.31578947 -4.29554656 4.31578947 -2 1 C-1.34 0.67 -0.68 0.34 0 0 Z " fill="#E22029" transform="translate(116,28)"/>
<path d="M0 0 C1.23556641 0.01740234 1.23556641 0.01740234 2.49609375 0.03515625 C3.32238281 0.04417969 4.14867187 0.05320312 5 0.0625 C5.63808594 0.07410156 6.27617187 0.08570313 6.93359375 0.09765625 C6.93359375 2.73765625 6.93359375 5.37765625 6.93359375 8.09765625 C5.94359375 8.09765625 4.95359375 8.09765625 3.93359375 8.09765625 C3.60359375 7.10765625 3.27359375 6.11765625 2.93359375 5.09765625 C0.91851017 4.36441829 0.91851017 4.36441829 -1.06640625 4.09765625 C-1.06640625 6.40765625 -1.06640625 8.71765625 -1.06640625 11.09765625 C-1.39640625 11.09765625 -1.72640625 11.09765625 -2.06640625 11.09765625 C-2.06640625 8.78765625 -2.06640625 6.47765625 -2.06640625 4.09765625 C-3.05640625 4.42765625 -4.04640625 4.75765625 -5.06640625 5.09765625 C-2.6606399 0.12573913 -2.6606399 0.12573913 0 0 Z " fill="#E13C44" transform="translate(150.06640625,8.90234375)"/>
<path d="M0 0 C0.33 0 0.66 0 1 0 C1.33 9.57 1.66 19.14 2 29 C3.65 29.33 5.3 29.66 7 30 C7 30.33 7 30.66 7 31 C3.7 31 0.4 31 -3 31 C-2.67 30.34 -2.34 29.68 -2 29 C-1.77627304 26.82449886 -1.60717019 24.64327619 -1.46484375 22.4609375 C-1.37783203 21.15898438 -1.29082031 19.85703125 -1.20117188 18.515625 C-1.11318888 17.13542255 -1.02529947 15.75521413 -0.9375 14.375 C-0.84609599 12.98695324 -0.75430391 11.59893198 -0.66210938 10.2109375 C-0.43757861 6.80752382 -0.21704824 3.40389773 0 0 Z " fill="#EA1C20" transform="translate(179,17)"/>
<path d="M0 0 C2.91517292 1.07401108 4.77810176 1.77810176 7 4 C6.76568263 6.42127949 6.12981957 7.81176163 4.75 9.8125 C3 11 3 11 0.3125 10.6875 C-0.450625 10.460625 -1.21375 10.23375 -2 10 C-1.54177532 6.53058454 -1.10868317 3.32604951 0 0 Z " fill="#FBF4F4" transform="translate(67,28)"/>
<path d="M0 0 C-0.38520564 2.53910197 -0.70097943 3.72751123 -2.62890625 5.484375 C-3.26699219 5.90203125 -3.90507813 6.3196875 -4.5625 6.75 C-5.20316406 7.17796875 -5.84382813 7.6059375 -6.50390625 8.046875 C-7.24447266 8.51867187 -7.24447266 8.51867187 -8 9 C-8.99 8.34 -9.98 7.68 -11 7 C-11 4 -11 4 -9.609375 2.578125 C-8.99578125 2.13984375 -8.3821875 1.7015625 -7.75 1.25 C-7.14671875 0.80140625 -6.5434375 0.3528125 -5.921875 -0.109375 C-3.52647822 -1.21943692 -2.43245678 -0.88257281 0 0 Z " fill="#FAE3E3" transform="translate(38,21)"/>
<path d="M0 0 C0.66 0 1.32 0 2 0 C2.0246519 4.82380802 2.04283693 9.64757967 2.05493164 14.47143555 C2.05997174 16.11369464 2.06680378 17.75594923 2.07543945 19.39819336 C2.08751926 21.75375479 2.09323139 24.10925709 2.09765625 26.46484375 C2.10281754 27.20339096 2.10797882 27.94193817 2.11329651 28.7028656 C2.1134925 30.46898088 2.06194719 32.23497146 2 34 C1.505 34.495 1.505 34.495 1 35 C4.3 35 7.6 35 11 35 C11 35.66 11 36.32 11 37 C6.38 37 1.76 37 -3 37 C-2.67 36.01 -2.34 35.02 -2 34 C-1.34 34 -0.68 34 0 34 C0 22.78 0 11.56 0 0 Z " fill="#DB2933" transform="translate(176,12)"/>
<path d="M0 0 C0.721875 0.845625 1.44375 1.69125 2.1875 2.5625 C4.71922674 5.32249121 4.71922674 5.32249121 7.6875 4.875 C9.97998132 4.05240185 9.97998132 4.05240185 12 3 C12 3.66 12 4.32 12 5 C12.99 5.33 13.98 5.66 15 6 C10.89826183 8.98308231 8.03733161 9.5397141 3 9 C0.0625 7.5 0.0625 7.5 -2 6 C-1.01 5.67 -0.02 5.34 1 5 C0.67 3.35 0.34 1.7 0 0 Z " fill="#DC343D" transform="translate(283,41)"/>
<path d="M0 0 C0.99 0.33 1.98 0.66 3 1 C3.66 0.67 4.32 0.34 5 0 C5.36363636 7.27272727 5.36363636 7.27272727 3.75 10.5 C2 12 2 12 -2 12 C-1.125 8.125 -1.125 8.125 0 7 C0.04092937 4.66702567 0.04241723 2.33294775 0 0 Z " fill="#E91E29" transform="translate(297,34)"/>
<path d="M0 0 C3.27286682 2.7819368 4.96427697 6.27954067 7 10 C5.68 10.99 4.36 11.98 3 13 C3 12.34 3 11.68 3 11 C1.68 10.67 0.36 10.34 -1 10 C-1.02689216 8.52093108 -1.04634621 7.04172517 -1.0625 5.5625 C-1.07410156 4.73878906 -1.08570313 3.91507813 -1.09765625 3.06640625 C-1 1 -1 1 0 0 Z " fill="#FAE9E9" transform="translate(184,36)"/>
<path d="M0 0 C0.33 0 0.66 0 1 0 C1 2.64 1 5.28 1 8 C0.34 8 -0.32 8 -1 8 C-0.67 9.65 -0.34 11.3 0 13 C0.66 13 1.32 13 2 13 C2 15.31 2 17.62 2 20 C1.67 18.68 1.34 17.36 1 16 C-0.32 15.67 -1.64 15.34 -3 15 C-3 15.99 -3 16.98 -3 18 C-3.99 17.67 -4.98 17.34 -6 17 C-5.01 15.515 -5.01 15.515 -4 14 C-3.75944532 11.94290404 -3.75944532 11.94290404 -3.875 9.8125 C-3.91625 8.554375 -3.9575 7.29625 -4 6 C-2.68 6 -1.36 6 0 6 C0 4.02 0 2.04 0 0 Z " fill="#FADEDE" transform="translate(275,20)"/>
<path d="M0 0 C3.3 0.33 6.6 0.66 10 1 C10 1.99 10 2.98 10 4 C11.65 4 13.3 4 15 4 C15 9.94 15 15.88 15 22 C14.67 22 14.34 22 14 22 C14 16.39 14 10.78 14 5 C12.68 5 11.36 5 10 5 C9.67 6.32 9.34 7.64 9 9 C8.1646875 7.576875 8.1646875 7.576875 7.3125 6.125 C4.93429698 2.91121213 3.75965574 2.04434882 0 1 C0 0.67 0 0.34 0 0 Z " fill="#FCE4E2" transform="translate(128,23)"/>
<path d="M0 0 C0.33 0 0.66 0 1 0 C2.0070238 5.03511899 1.97387813 8.23947038 0 13 C-0.34675781 12.35546875 -0.69351563 11.7109375 -1.05078125 11.046875 C-3.88060137 8.07528032 -6.1641093 8.39764736 -10.1875 8.25 C-12.09595703 8.16492188 -12.09595703 8.16492188 -14.04296875 8.078125 C-15.01878906 8.05234375 -15.99460938 8.0265625 -17 8 C-17 7.67 -17 7.34 -17 7 C-12.38 7 -7.76 7 -3 7 C-3 6.34 -3 5.68 -3 5 C-3.99 4.67 -4.98 4.34 -6 4 C-4.0625 3.4375 -4.0625 3.4375 -2 3 C-1.67 3.33 -1.34 3.66 -1 4 C-0.67 2.68 -0.34 1.36 0 0 Z " fill="#FADCDE" transform="translate(250,42)"/>
<path d="M0 0 C1.65 0 3.3 0 5 0 C6.35439668 2.70879335 6.06501451 5.00933268 6 8 C4.35 8.66 2.7 9.32 1 10 C0.67 6.7 0.34 3.4 0 0 Z " fill="#E92028" transform="translate(102,34)"/>
<path d="M0 0 C2 1 2 1 3 2 C3.07244053 4.01964199 3.08377188 6.04167124 3.0625 8.0625 C3.05347656 9.16722656 3.04445312 10.27195312 3.03515625 11.41015625 C3.02355469 12.26480469 3.01195312 13.11945312 3 14 C2.34 14 1.68 14 1 14 C1 14.66 1 15.32 1 16 C1.99 16.33 2.98 16.66 4 17 C2.68 17 1.36 17 0 17 C0 11.39 0 5.78 0 0 Z " fill="#EC1B23" transform="translate(161,32)"/>
<path d="M0 0 C2.475 0.495 2.475 0.495 5 1 C4.67 2.65 4.34 4.3 4 6 C3.01 6 2.02 6 1 6 C1.33 7.32 1.66 8.64 2 10 C4.97 10 7.94 10 11 10 C11 10.33 11 10.66 11 11 C7.37 11 3.74 11 0 11 C0 7.37 0 3.74 0 0 Z " fill="#FBE9E7" transform="translate(149,13)"/>
<path d="M0 0 C4.95 0 9.9 0 15 0 C15 1.32 15 2.64 15 4 C8.07 3.505 8.07 3.505 1 3 C0.67 2.01 0.34 1.02 0 0 Z " fill="#EC1B21" transform="translate(253,46)"/>
<path d="M0 0 C1.98 0 3.96 0 6 0 C4.625 2 4.625 2 3 4 C2.34 4 1.68 4 1 4 C1 6.31 1 8.62 1 11 C0.01 11.495 0.01 11.495 -1 12 C-1 11.01 -1 10.02 -1 9 C-1.66 9 -2.32 9 -3 9 C-3 7.68 -3 6.36 -3 5 C-2.34 5 -1.68 5 -1 5 C-0.67 3.35 -0.34 1.7 0 0 Z " fill="#E81D25" transform="translate(254,24)"/>
<path d="M0 0 C0.33 0 0.66 0 1 0 C1 6.6 1 13.2 1 20 C4.3 20 7.6 20 11 20 C11 20.66 11 21.32 11 22 C6.05 22 1.1 22 -4 22 C-4 21.34 -4 20.68 -4 20 C-3.01 19.34 -2.02 18.68 -1 18 C-0.49468134 16.07558585 -0.49468134 16.07558585 -0.48828125 13.8671875 C-0.45283203 13.06152344 -0.41738281 12.25585938 -0.38085938 11.42578125 C-0.35830078 10.58402344 -0.33574219 9.74226563 -0.3125 8.875 C-0.27833984 8.02550781 -0.24417969 7.17601562 -0.20898438 6.30078125 C-0.12640827 4.20098895 -0.06153022 2.10051436 0 0 Z " fill="#CD3640" transform="translate(143,27)"/>
<path d="M0 0 C1.65 0 3.3 0 5 0 C5.33 1.65 5.66 3.3 6 5 C5.01 5.66 4.02 6.32 3 7 C2.67 6.67 2.34 6.34 2 6 C2 8.31 2 10.62 2 13 C1.01 13.33 0.02 13.66 -1 14 C-0.67 9.38 -0.34 4.76 0 0 Z " fill="#E42C32" transform="translate(296,29)"/>
<path d="M0 0 C0.66 0 1.32 0 2 0 C2.33 3.63 2.66 7.26 3 11 C0.525 10.01 0.525 10.01 -2 9 C-2.125 5.625 -2.125 5.625 -2 2 C-1.34 1.34 -0.68 0.68 0 0 Z " fill="#E4252E" transform="translate(18,27)"/>
<path d="M0 0 C1.65 1.32 3.3 2.64 5 4 C4.67 4.99 4.34 5.98 4 7 C3.96125079 8.66621616 3.9549714 10.33394172 4 12 C2.02 12.99 2.02 12.99 0 14 C0.66 13.01 1.32 12.02 2 11 C2 10.01 2 9.02 2 8 C0.4645122 6.53909212 0.4645122 6.53909212 -1.5 5.3125 C-2.1496875 4.87550781 -2.799375 4.43851563 -3.46875 3.98828125 C-3.9740625 3.66214844 -4.479375 3.33601563 -5 3 C-4.34 2.67 -3.68 2.34 -3 2 C-2.34 2.33 -1.68 2.66 -1 3 C-0.67 2.01 -0.34 1.02 0 0 Z " fill="#FBE1E1" transform="translate(63,24)"/>
<path d="M0 0 C-0.33 0.66 -0.66 1.32 -1 2 C-1.99 2 -2.98 2 -4 2 C-4 8.6 -4 15.2 -4 22 C-4.66 22.33 -5.32 22.66 -6 23 C-5.96519531 21.72382812 -5.93039063 20.44765625 -5.89453125 19.1328125 C-5.86639769 17.46355479 -5.83909707 15.7942829 -5.8125 14.125 C-5.78736328 13.28324219 -5.76222656 12.44148438 -5.73632812 11.57421875 C-5.72182617 10.36572266 -5.72182617 10.36572266 -5.70703125 9.1328125 C-5.6913208 8.38918457 -5.67561035 7.64555664 -5.65942383 6.87939453 C-5.77181396 6.25919434 -5.8842041 5.63899414 -6 5 C-6.99 4.34 -7.98 3.68 -9 3 C-9 2.34 -9 1.68 -9 1 C-5.92677456 0.08941469 -3.19902639 -0.08886184 0 0 Z " fill="#D82931" transform="translate(226,23)"/>
<path d="M0 0 C2.5625 0.1875 2.5625 0.1875 4.5625 2.1875 C4.70757695 4.93235593 4.74902423 7.57230543 4.6875 10.3125 C4.67847656 11.06660156 4.66945312 11.82070313 4.66015625 12.59765625 C4.6365687 14.46107254 4.60069719 16.32432593 4.5625 18.1875 C4.2325 18.1875 3.9025 18.1875 3.5625 18.1875 C3.2325 13.2375 2.9025 8.2875 2.5625 3.1875 C-1.29688975 4.09802075 -1.29688975 4.09802075 -4.4375 5.1875 C-3.32386364 0.25568182 -3.32386364 0.25568182 0 0 Z " fill="#FBE4E0" transform="translate(232.4375,26.8125)"/>
<path d="M0 0 C2.62756588 0.25437711 5.25071774 0.52764201 7.875 0.8125 C8.99455078 0.91788086 8.99455078 0.91788086 10.13671875 1.02539062 C12.10551777 1.24710223 14.05636658 1.61579339 16 2 C16.99 3.485 16.99 3.485 18 5 C12.39 4.34 6.78 3.68 1 3 C0.67 2.01 0.34 1.02 0 0 Z " fill="#DE3742" transform="translate(255,43)"/>
<path d="M0 0 C0.99 0.33 1.98 0.66 3 1 C2.67 3.97 2.34 6.94 2 10 C-0.31 10 -2.62 10 -5 10 C-5 9.01 -5 8.02 -5 7 C-3.35 7 -1.7 7 0 7 C0 4.69 0 2.38 0 0 Z " fill="#DE303A" transform="translate(143,17)"/>
<path d="M0 0 C0.33 3.63 0.66 7.26 1 11 C0.01 11 -0.98 11 -2 11 C-3.125 7.25 -3.125 7.25 -2 5 C-2.66 5 -3.32 5 -4 5 C-4 3.68 -4 2.36 -4 1 C-2 0 -2 0 0 0 Z " fill="#E5252E" transform="translate(148,13)"/>
<path d="M0 0 C2.31 1.98 4.62 3.96 7 6 C6.67 6.66 6.34 7.32 6 8 C1.68607774 7.5206753 -0.16569547 6.2542015 -3 3 C-2.01 3 -1.02 3 0 3 C0 2.01 0 1.02 0 0 Z " fill="#E13942" transform="translate(33,32)"/>
<path d="M0 0 C1.32 0 2.64 0 4 0 C4.33 2.97 4.66 5.94 5 9 C4.01 9.33 3.02 9.66 2 10 C0.68373308 6.38026598 0 3.90432869 0 0 Z " fill="#EB1B25" transform="translate(131,28)"/>
<path d="M0 0 C0.33 0.66 0.66 1.32 1 2 C0.01 2.99 -0.98 3.98 -2 5 C-0.35 5 1.3 5 3 5 C2.67 5.66 2.34 6.32 2 7 C-3.53846154 7.36923077 -3.53846154 7.36923077 -5.875 5.5 C-6.24625 5.005 -6.6175 4.51 -7 4 C-6.34 4 -5.68 4 -5 4 C-4.67 3.01 -4.34 2.02 -4 1 C-1.9375 0.3125 -1.9375 0.3125 0 0 Z " fill="#FAE5E3" transform="translate(39,39)"/>
<path d="M0 0 C1.98 0.495 1.98 0.495 4 1 C3.74438677 3.3431213 3.40729228 5.67843403 3 8 C2.01 8.495 2.01 8.495 1 9 C0.34 8.67 -0.32 8.34 -1 8 C-1.125 2.25 -1.125 2.25 0 0 Z " fill="#E91D25" transform="translate(268,25)"/>
<path d="M0 0 C3.63 0 7.26 0 11 0 C11 0.99 11 1.98 11 3 C6.99799622 4.60080151 3.95443764 3.29279692 0 2 C0 1.34 0 0.68 0 0 Z " fill="#DC2B36" transform="translate(187,24)"/>
<path d="M0 0 C1.9375 0.3125 1.9375 0.3125 4 1 C4.33 1.99 4.66 2.98 5 4 C5.66 4 6.32 4 7 4 C7.33 5.65 7.66 7.3 8 9 C7.01 9 6.02 9 5 9 C5 8.01 5 7.02 5 6 C4.01 5.67 3.02 5.34 2 5 C1.34 4.34 0.68 3.68 0 3 C0 2.01 0 1.02 0 0 Z " fill="#EC1B21" transform="translate(188,37)"/>
<path d="M0 0 C1.98 0 3.96 0 6 0 C5.01 0.495 5.01 0.495 4 1 C4 1.66 4 2.32 4 3 C5.6396875 2.938125 5.6396875 2.938125 7.3125 2.875 C11 3 11 3 14 5 C7.07 4.505 7.07 4.505 0 4 C0 2.68 0 1.36 0 0 Z " fill="#FCEAE9" transform="translate(257,40)"/>
<path d="M0 0 C1.32 0.33 2.64 0.66 4 1 C4 3.97 4 6.94 4 10 C3.34 10 2.68 10 2 10 C2 9.01 2 8.02 2 7 C1.34 7 0.68 7 0 7 C0 4.69 0 2.38 0 0 Z " fill="#EC1A22" transform="translate(113,34)"/>
<path d="M0 0 C1.32 0 2.64 0 4 0 C4 2.97 4 5.94 4 9 C3.01 9 2.02 9 1 9 C0.67 6.03 0.34 3.06 0 0 Z " fill="#F8FCFB" transform="translate(138,28)"/>
<path d="M0 0 C3.52269485 -0.4025937 4.79940808 -0.13372795 7.8125 1.875 C8.534375 2.57625 9.25625 3.2775 10 4 C10 4.66 10 5.32 10 6 C5.48279689 6.36625971 5.48279689 6.36625971 3.1875 4.625 C2 3 2 3 2 1 C1.34 0.67 0.68 0.34 0 0 Z " fill="#EE1920" transform="translate(89,27)"/>
<path d="M0 0 C0 0.33 0 0.66 0 1 C-1.98 1 -3.96 1 -6 1 C-6 1.66 -6 2.32 -6 3 C-4.68 3 -3.36 3 -2 3 C-2.33 3.66 -2.66 4.32 -3 5 C-4.1446875 4.9071875 -4.1446875 4.9071875 -5.3125 4.8125 C-8.04525312 4.74101915 -8.04525312 4.74101915 -9.8125 6.5 C-10.204375 6.995 -10.59625 7.49 -11 8 C-11.25 5.6875 -11.25 5.6875 -11 3 C-7.85004477 -0.65394807 -4.57703263 -0.26405958 0 0 Z " fill="#DC313E" transform="translate(238,23)"/>
<path d="M0 0 C1.20628008 2.33214148 2.1654738 4.49642139 3 7 C1.59554165 9.2636564 -0.1967913 11.0208685 -2 13 C-2.99 12.67 -3.98 12.34 -5 12 C-4.52949219 11.60167969 -4.05898437 11.20335937 -3.57421875 10.79296875 C-1.68239447 8.6382607 -1.33939211 7.10908118 -0.8125 4.3125 C-0.65394531 3.50425781 -0.49539062 2.69601563 -0.33203125 1.86328125 C-0.22246094 1.24839844 -0.11289063 0.63351563 0 0 Z " fill="#FCE5E7" transform="translate(108,36)"/>
<path d="M0 0 C3.79588866 0.54226981 5.47211993 2.20127563 8 5 C7.01 5 6.02 5 5 5 C4.67 5.66 4.34 6.32 4 7 C2 5.75 2 5.75 0 4 C0 2.68 0 1.36 0 0 Z " fill="#DE3238" transform="translate(55,26)"/>
<path d="M0 0 C0.99 0.66 1.98 1.32 3 2 C0.525 3.485 0.525 3.485 -2 5 C-2 3.68 -2 2.36 -2 1 C-6.455 1.495 -6.455 1.495 -11 2 C-8.75855867 -2.48288266 -4.12264828 -0.80980591 0 0 Z " fill="#F7D4D0" transform="translate(228,22)"/>
<path d="M0 0 C0.66 0 1.32 0 2 0 C2 0.66 2 1.32 2 2 C2.66 2 3.32 2 4 2 C2.95125002 4.62187494 2.35068687 5.79371361 -0.125 7.25 C-0.74375 7.4975 -1.3625 7.745 -2 8 C-2.20086443 4.28400809 -2.1519437 3.22791555 0 0 Z " fill="#FAE7E8" transform="translate(185,24)"/>
<path d="M0 0 C2 2 2 2 3 5 C3.66 5.66 4.32 6.32 5 7 C4.34 7.66 3.68 8.32 3 9 C2.34 8.67 1.68 8.34 1 8 C0.40644386 5.35139573 0.25790731 2.70802678 0 0 Z M-3 9 C-1.02 9 0.96 9 3 9 C3 9.99 3 10.98 3 12 C1.02 11.34 -0.96 10.68 -3 10 C-3 9.67 -3 9.34 -3 9 Z " fill="#FAE5E2" transform="translate(101,19)"/>
<path d="M0 0 C1.2065625 0.0309375 1.2065625 0.0309375 2.4375 0.0625 C1.65375 0.660625 0.87 1.25875 0.0625 1.875 C-3.39214725 4.75387271 -4.75553088 6.85831392 -5.1875 11.25 C-5.31125 12.508125 -5.435 13.76625 -5.5625 15.0625 C-5.8925 15.0625 -6.2225 15.0625 -6.5625 15.0625 C-6.88571868 9.56778249 -7.1089527 5.60195945 -3.5625 1.0625 C-2.5625 0.0625 -2.5625 0.0625 0 0 Z " fill="#FBD5D5" transform="translate(289.5625,25.9375)"/>
<path d="M0 0 C2.97 0.33 5.94 0.66 9 1 C8.67 1.99 8.34 2.98 8 4 C5.36 4 2.72 4 0 4 C0 2.68 0 1.36 0 0 Z " fill="#E4353B" transform="translate(162,46)"/>
<path d="M0 0 C0.66 0 1.32 0 2 0 C2 1.98 2 3.96 2 6 C0.02 6.99 0.02 6.99 -2 8 C-2.125 5.125 -2.125 5.125 -2 2 C-1.34 1.34 -0.68 0.68 0 0 Z " fill="#2E7E40" transform="translate(209,13)"/>
<path d="M0 0 C0.66 1.32 1.32 2.64 2 4 C2.66 3.34 3.32 2.68 4 2 C4.33 3.32 4.66 4.64 5 6 C3.68 6.99 2.36 7.98 1 9 C1 8.01 1 7.02 1 6 C0.01 5.67 -0.98 5.34 -2 5 C-1.34 3.35 -0.68 1.7 0 0 Z " fill="#DC2830" transform="translate(102,39)"/>
<path d="M0 0 C0.66 1.32 1.32 2.64 2 4 C2.99 4 3.98 4 5 4 C4.67 5.98 4.34 7.96 4 10 C2.68 9.34 1.36 8.68 0 8 C0 5.36 0 2.72 0 0 Z " fill="#FBE0E0" transform="translate(48,36)"/>
<path d="M0 0 C0.33 0.66 0.66 1.32 1 2 C1.66 2 2.32 2 3 2 C3 2.66 3 3.32 3 4 C0.04335481 5.4783226 -2.74229737 5.06032783 -6 5 C-6 4.34 -6 3.68 -6 3 C-5.195625 2.690625 -4.39125 2.38125 -3.5625 2.0625 C-1.10919595 1.23664655 -1.10919595 1.23664655 0 0 Z " fill="#DF2532" transform="translate(129,44)"/>
<path d="M0 0 C1.65 0 3.3 0 5 0 C5.33 0.99 5.66 1.98 6 3 C5.67 3.66 5.34 4.32 5 5 C3.68 4.67 2.36 4.34 1 4 C0.67 2.68 0.34 1.36 0 0 Z " fill="#FCF6F5" transform="translate(29,38)"/>
<path d="M0 0 C1.98 0.99 1.98 0.99 4 2 C3.67 3.98 3.34 5.96 3 8 C2.34 8 1.68 8 1 8 C0.67 5.36 0.34 2.72 0 0 Z " fill="#E8242E" transform="translate(74,28)"/>
<path d="M0 0 C2.64 0 5.28 0 8 0 C8.33 0.66 8.66 1.32 9 2 C8.01 2.33 7.02 2.66 6 3 C5.26676204 5.01508358 5.26676204 5.01508358 5 7 C4.67 5.35 4.34 3.7 4 2 C2.68 2 1.36 2 0 2 C0 1.34 0 0.68 0 0 Z " fill="#E4222A" transform="translate(232,24)"/>
<path d="M0 0 C0.66 0.33 1.32 0.66 2 1 C1.67 1.33 1.34 1.66 1 2 C1.99 2.66 2.98 3.32 4 4 C1.92446352 4.5534764 0.15634036 5 -2 5 C-2 7.31 -2 9.62 -2 12 C-2.33 12 -2.66 12 -3 12 C-3.36923077 4.61538462 -3.36923077 4.61538462 -1.5 1.5 C-1.005 1.005 -0.51 0.51 0 0 Z " fill="#DE343D" transform="translate(88,15)"/>
<path d="M0 0 C0.33 1.32 0.66 2.64 1 4 C1.99 4 2.98 4 4 4 C4.33 3.34 4.66 2.68 5 2 C4.625 4.9375 4.625 4.9375 4 8 C3.01 8.495 3.01 8.495 2 9 C1.67 8.01 1.34 7.02 1 6 C0.34 5.67 -0.32 5.34 -1 5 C-0.67 3.35 -0.34 1.7 0 0 Z " fill="#E24B52" transform="translate(43,38)"/>
<path d="M0 0 C0.99 0.495 0.99 0.495 2 1 C1.938125 1.886875 1.87625 2.77375 1.8125 3.6875 C2.01951982 7.34485017 2.916074 9.04777151 5 12 C4.01 12.495 4.01 12.495 3 13 C3 12.34 3 11.68 3 11 C2.01 10.67 1.02 10.34 0 10 C0 6.7 0 3.4 0 0 Z " fill="#FDECEB" transform="translate(249,27)"/>
<path d="M0 0 C0.598125 0.165 1.19625 0.33 1.8125 0.5 C4.11344336 1.1114124 4.11344336 1.1114124 7 1 C7.33 1.66 7.66 2.32 8 3 C6.68 3 5.36 3 4 3 C3.67 3.99 3.34 4.98 3 6 C0 2.25 0 2.25 0 0 Z " fill="#E5363F" transform="translate(127,25)"/>
<path d="M0 0 C2.0625 1.75 2.0625 1.75 4 4 C3.75 6.25 3.75 6.25 3 8 C2.01 8 1.02 8 0 8 C0 5.36 0 2.72 0 0 Z " fill="#EA1B24" transform="translate(85,40)"/>
<path d="M0 0 C0.66 0 1.32 0 2 0 C2 2.31 2 4.62 2 7 C1.01 7 0.02 7 -1 7 C-1.04254356 5.00045254 -1.04080783 2.99958364 -1 1 C-0.67 0.67 -0.34 0.34 0 0 Z " fill="#E61E27" transform="translate(45,35)"/>
<path d="M0 0 C0.99 0.33 1.98 0.66 3 1 C3 2.98 3 4.96 3 7 C2.01 7 1.02 7 0 7 C0 4.69 0 2.38 0 0 Z " fill="#E52126" transform="translate(38,20)"/>
<path d="M0 0 C0.66 0.99 1.32 1.98 2 3 C-0.06756277 5.7972908 -1.14440371 6.02692273 -4.6875 6.6875 C-5.780625 6.790625 -6.87375 6.89375 -8 7 C-7.01 6.34 -6.02 5.68 -5 5 C-3.31384218 3.35305515 -1.64429829 1.68873879 0 0 Z " fill="#FCE2E0" transform="translate(47,44)"/>
<path d="M0 0 C1.125 3.75 1.125 3.75 0 6 C-1.32 5.67 -2.64 5.34 -4 5 C-4 4.01 -4 3.02 -4 2 C-2.68 1.34 -1.36 0.68 0 0 Z " fill="#E91D21" transform="translate(188,30)"/>
<path d="M0 0 C1.98 0 3.96 0 6 0 C6 0.99 6 1.98 6 3 C4.02 3 2.04 3 0 3 C0 2.01 0 1.02 0 0 Z " fill="#E5232D" transform="translate(55,47)"/>
<path d="M0 0 C0.33 0.99 0.66 1.98 1 3 C0.67 3.66 0.34 4.32 0 5 C-2.32156597 5.40729228 -4.6568787 5.74438677 -7 6 C-6.21625 5.38125 -5.4325 4.7625 -4.625 4.125 C-2.03162353 2.10141339 -2.03162353 2.10141339 0 0 Z " fill="#F9DEDA" transform="translate(300,44)"/>
<path d="M0 0 C0.33 0.66 0.66 1.32 1 2 C1.99 2.33 2.98 2.66 4 3 C3.01 3 2.02 3 1 3 C1 6.3 1 9.6 1 13 C0.67 13 0.34 13 0 13 C-0.19397476 11.02145742 -0.38001321 9.0421352 -0.5625 7.0625 C-0.66691406 5.96035156 -0.77132812 4.85820313 -0.87890625 3.72265625 C-0.91886719 2.82417969 -0.95882812 1.92570312 -1 1 C-0.67 0.67 -0.34 0.34 0 0 Z " fill="#F8E3DF" transform="translate(83,36)"/>
<path d="M0 0 C0.99 0.66 1.98 1.32 3 2 C2.34 3.32 1.68 4.64 1 6 C-0.65 4.35 -2.3 2.7 -4 1 C-2.68 1.33 -1.36 1.66 0 2 C0 1.34 0 0.68 0 0 Z " fill="#DE3540" transform="translate(21,36)"/>
<path d="M0 0 C1.65 0 3.3 0 5 0 C5 0.66 5 1.32 5 2 C5.99 2.33 6.98 2.66 8 3 C8 3.66 8 4.32 8 5 C4.62496331 3.8141763 2.35277269 2.72426311 0 0 Z " fill="#E3323C" transform="translate(86,28)"/>
<path d="M0 0 C0.99 0 1.98 0 3 0 C3 1.98 3 3.96 3 6 C2.01 5.67 1.02 5.34 0 5 C0 3.35 0 1.7 0 0 Z " fill="#EC1A1E" transform="translate(251,50)"/>
<path d="M0 0 C1.32 0.66 2.64 1.32 4 2 C4 2.66 4 3.32 4 4 C2.68 4 1.36 4 0 4 C-0.33 4.99 -0.66 5.98 -1 7 C-1.33 5.68 -1.66 4.36 -2 3 C-1.34 3 -0.68 3 0 3 C0 2.01 0 1.02 0 0 Z " fill="#E03943" transform="translate(296,25)"/>
<path d="M0 0 C-0.33 1.98 -0.66 3.96 -1 6 C-1.99 5.67 -2.98 5.34 -4 5 C-4 3.68 -4 2.36 -4 1 C-2 0 -2 0 0 0 Z " fill="#EF1822" transform="translate(90,19)"/>
<path d="M0 0 C1.65 0.99 3.3 1.98 5 3 C4.01 3.495 4.01 3.495 3 4 C2.67 4.99 2.34 5.98 2 7 C1.01 6.01 0.02 5.02 -1 4 C-0.34 4 0.32 4 1 4 C0.67 2.68 0.34 1.36 0 0 Z " fill="#DF373F" transform="translate(60,17)"/>
<path d="M0 0 C1.5 1.125 1.5 1.125 3 3 C3.1875 6.1875 3.1875 6.1875 3 9 C2.67 9 2.34 9 2 9 C1.67 7.35 1.34 5.7 1 4 C0.01 4 -0.98 4 -2 4 C-2 3.01 -2 2.02 -2 1 C-1.34 0.67 -0.68 0.34 0 0 Z " fill="#DC3A3F" transform="translate(39,17)"/>
</svg>
